<?xml version="1.0" standalone="no"?>
<!DOCTYPE svg PUBLIC "-//W3C//DTD SVG 20010904//EN"
 "http://www.w3.org/TR/2001/REC-SVG-20010904/DTD/svg10.dtd">
<svg version="1.0" xmlns="http://www.w3.org/2000/svg"
 width="129.000000pt" height="300.000000pt" viewBox="0 0 129.000000 300.000000"
 preserveAspectRatio="xMidYMid meet">
<metadata>
Created by potrace 1.10, written by Peter Selinger 2001-2011
</metadata>
<g transform="translate(0.000000,300.000000) scale(0.100000,-0.100000)"
fill="#000000" stroke="black" stroke-width="30">
<path d="M584 2940 c-12 -4 -31 -21 -43 -35 -66 -85 -53 -273 54 -755 26 -116
44 -217 41 -233 -6 -31 -115 -308 -126 -320 -4 -4 -10 26 -13 68 -7 82 -36
248 -91 521 -41 200 -94 530 -102 626 -6 78 -31 120 -60 103 -16 -10 -17 -44
-19 -395 -1 -385 -3 -412 -45 -675 -32 -203 -35 -272 -15 -295 21 -23 44 -25
69 -7 15 11 21 46 37 213 34 354 35 712 3 872 -4 21 -3 32 5 32 6 0 11 -10 11
-23 0 -25 24 -141 99 -472 27 -121 59 -283 71 -360 11 -77 24 -163 29 -191 7
-48 3 -62 -60 -226 -133 -342 -164 -507 -164 -883 0 -211 2 -247 19 -299 25
-75 80 -136 123 -136 102 0 127 170 127 850 0 247 -4 457 -11 519 l-12 105 63
155 c35 86 67 165 71 176 5 14 15 -16 36 -105 16 -68 50 -198 75 -288 l46
-163 -36 -122 c-69 -231 -87 -363 -88 -632 -1 -170 1 -197 21 -257 37 -114
108 -190 179 -192 129 -3 161 197 96 599 -22 138 -93 423 -139 557 -15 46 -15
48 19 140 50 136 86 225 202 490 57 131 104 243 104 250 0 21 -15 -4 -45 -72
-15 -36 -66 -153 -112 -260 -47 -107 -109 -258 -138 -334 -60 -161 -48 -167
-109 59 -80 298 -96 373 -85 402 15 40 38 152 54 268 27 189 15 564 -21 663
-22 59 -69 83 -120 62z m70 -59 c20 -22 40 -116 57 -261 19 -165 -2 -452 -45
-605 -16 -59 -13 -68 -56 153 -55 281 -77 531 -56 639 14 79 63 115 100 74z
m-429 -1158 c-4 -65 -12 -122 -17 -128 -11 -10 -4 161 8 218 13 56 16 23 9
-90z m285 -349 c14 -169 13 -719 0 -908 -17 -229 -44 -344 -88 -361 -42 -16
-89 63 -118 200 -12 60 -17 131 -17 280 0 209 16 348 62 525 18 70 143 402
149 396 1 -2 7 -61 12 -132z m349 -239 c93 -328 125 -521 119 -728 -4 -154
-23 -223 -68 -247 -30 -16 -100 20 -135 70 -54 78 -68 146 -73 363 -4 207 3
293 39 447 25 110 71 258 75 245 2 -5 21 -73 43 -150z"/>
</g>
</svg>
